Coordinates
nRows=8
nColumns=24

# SIMM Motion File Header:
name Coordinates
datacolumns 24
datarows 8
otherdata 1
range 1.25333000000000010000 1.26033000000000000000

Units are S.I. units (second, meters, Newtons, ...)
Angles are in degrees.

endheader
time	pelvis_tx	pelvis_ty	pelvis_tz	pelvis_tilt	pelvis_list	pelvis_rotation	hip_flexion_r	hip_adduction_r	hip_rotation_r	knee_angle_r	ankle_angle_r	subtalar_angle_r	mtp_angle_r	hip_flexion_l	hip_adduction_l	hip_rotation_l	knee_angle_l	ankle_angle_l	subtalar_angle_l	mtp_angle_l	lumbar_extension	lumbar_bending	lumbar_rotation
      1.25333000000000010000	     -0.92288038522318905000	      0.68947848305547377000	      0.26149199495819375000	      4.13265476112972690000	      1.39967013559564070000	     -2.12816001508639200000	     10.74708108447301700000	     -9.27433090233458480000	    -13.47355115858672800000	    -51.75228802133233300000	     10.56800024926862300000	     -0.00000000000086969695	      0.00000000000108142755	     -1.07236416279873950000	      6.61428145288154030000	     -4.71998493068368670000	     -6.22804845302754820000	      3.61807457701875810000	      0.00000000000006144677	      0.00000000000009357982	    -23.32631671361398800000	     -3.54660745183501590000	      0.90940927428463403000
      1.25432999999999990000	     -0.92236733720726194000	      0.68946628643775254000	      0.26153429905362291000	      4.15871928843929070000	      1.39154630130793610000	     -2.14163806568480860000	     10.83348572571087400000	     -9.23964126733003790000	    -13.42296736769453200000	    -51.66909240767226000000	     10.59979322967771900000	     -0.00000000000087114469	      0.00000000000108299651	     -1.14913323818213440000	      6.61088993626919930000	     -4.69007083303894400000	     -6.23129814594806230000	      3.67789371286421800000	      0.00000000000006201965	      0.00000000000009423967	    -23.35102411482109700000	     -3.54529475355302060000	      0.91995489340279535000
      1.25533000000000010000	     -0.92185421371562959000	      0.68945360215864038000	      0.26157677636162052000	      4.18502526041568950000	      1.38351546760186390000	     -2.15526156043699530000	     10.91921893787650100000	     -9.20469765978393010000	    -13.37218114679720800000	    -51.58427348146269500000	     10.63106346545525800000	     -0.00000000000087259536	      0.00000000000108456525	     -1.22616931836464320000	      6.60766020653725580000	     -4.65950547445170840000	     -6.23458206752287760000	      3.73758692543617240000	      0.00000000000006261048	      0.00000000000009487918	    -23.37602924322969100000	     -3.54401433374019750000	      0.93046571275401158000
      1.25632999999999990000	     -0.92134100811437047000	      0.68944044189165743000	      0.26161939753747365000	      4.21157232547466000000	      1.37557342040779560000	     -2.16901768722426970000	     11.00427155589522400000	     -9.16950492097920920000	    -13.32121451347616100000	    -51.49783058015643200000	     10.66179659841239600000	     -0.00000000000087404560	      0.00000000000108613406	     -1.30346994833727870000	      6.60458864242681100000	     -4.62828683043050230000	     -6.23790677820640130000	      3.79715646014847240000	      0.00000000000006322291	      0.00000000000009545189	    -23.40133282005857400000	     -3.54275082741021000000	      0.94092032570978901000
      1.25733000000000010000	     -0.92082771382532447000	      0.68942681698013752000	      0.26166213357048335000	      4.23835998296401330000	      1.36771597802868780000	     -2.18289358194950940000	     11.08863477891075700000	     -9.13406808152447350000	    -13.27008989455912400000	    -51.40976354980199400000	     10.69197849954028500000	     -0.00000000000087549644	      0.00000000000108770375	     -1.38103255757683960000	      6.60167151942945020000	     -4.59641324939290110000	     -6.24127877340175980000	      3.85660484547264030000	      0.00000000000006388462	      0.00000000000009603386	    -23.42693540293574000000	     -3.54148904602106680000	      0.95129765386326193000
      1.25832999999999990000	     -0.92031432433239557000	      0.68941273840844730000	      0.26170495578726632000	      4.26538758187013660000	      1.35993899755180860000	     -2.19687633939430830000	     11.17230017399139900000	     -9.09839236172378380000	    -13.21883010378693700000	    -51.32007273717453400000	     10.72159527994459400000	     -0.00000000000087694871	      0.00000000000108927228	     -1.45885446607033350000	      6.59890501790134020000	     -4.56388346794093720000	     -6.24470446505724920000	      3.91593488449356820000	      0.00000000000006457231	      0.00000000000009658331	    -23.45283738941330400000	     -3.54021397840827580000	      0.96157697762197103000
      1.25933000000000010000	     -0.91980083318603190000	      0.68939821677284852000	      0.26174783585889844000	      4.29265431933870370000	      1.35223838051153630000	     -2.21095302396544250000	     11.25525967956100000000	     -9.06248317085956150000	    -13.16745831908417400000	    -51.22875898116805600000	     10.75063330181327900000	     -0.00000000000087840217	      0.00000000000109084105	     -1.53693288996576880000	      6.59628523032692190000	     -4.53069662501608580000	     -6.24819016381586590000	      3.97514964083870970000	      0.00000000000006524650	      0.00000000000009710603	    -23.47903901920215500000	     -3.53891079298411530000	      0.97173796420678238000
      1.26033000000000000000	     -0.91928723400055701000	      0.68938326225377944000	      0.26179074582136080000	      4.32015923930384370000	      1.34461007803816310000	     -2.22511068021401080000	     11.33750560719594500000	     -9.02634610538718360000	    -13.11599805836005000000	    -51.13582360169932200000	     10.77907918949221500000	     -0.00000000000087985500	      0.00000000000109240962	     -1.61526494656018600000	      6.59380816874121310000	     -4.49685227391878770000	     -6.25174206270914380000	      4.03425241972641850000	      0.00000000000006594511	      0.00000000000009760271	    -23.50554037257112200000	     -3.53756484710077590000	      0.98176068505959946000
